<svg xmlns="http://www.w3.org/2000/svg" width="162" height="162" viewBox="0 0 162 162">
    <defs>
        <filter id="uhoul6wwoa" width="117.6%" height="119.3%" x="-8.8%" y="-9.6%" filterUnits="objectBoundingBox">
            <feOffset dy="2" in="SourceAlpha" result="shadowOffsetOuter1"/>
            <feGaussianBlur in="shadowOffsetOuter1" result="shadowBlurOuter1" stdDeviation="2.5"/>
            <feColorMatrix in="shadowBlurOuter1" result="shadowMatrixOuter1" values="0 0 0 0 0 0 0 0 0 0 0 0 0 0 0 0 0 0 0.3 0"/>
            <feMerge>
                <feMergeNode in="shadowMatrixOuter1"/>
                <feMergeNode in="SourceGraphic"/>
            </feMerge>
        </filter>
    </defs>
    <g fill="none" fill-rule="evenodd">
        <g fill-rule="nonzero">
            <g>
                <g filter="url(#uhoul6wwoa)" transform="translate(-410 -1195) translate(410 1195) translate(4.5 11.25)">
                    <path fill="#EB670F" d="M35.977 0L0 85.885 76.669 139.743 152.756 94.244 120.698 0z"/>
                    <path fill="#EB7B30" d="M5.573 89.804L37.63 112.309 136.926 47.306 124.618 12.002zM41.702 115.187L57.838 126.516 145.316 72.168 138.549 52.511z"/>
                    <path fill="#E24104" d="M41.396 9.186L9.767 83.65 76.699 130.343 142.652 90.876 114.85 9.186z"/>
                    <path fill="#EA5016" d="M131.21 57.26l6.65 19.538-72.947 45.322-16.325-11.389 82.623-53.47zm-13.799-40.547l12.07 35.465-85.032 55.667-32.156-22.433 105.118-68.7z"/>
                </g>
                <path fill="#000" d="M83.024 108c5.514 0 10.14-.853 13.88-2.56s6.524-3.953 8.353-6.736C107.086 95.92 108 92.9 108 89.644c0-3.992-1.27-7.392-3.808-10.202-2.538-2.81-6.182-4.688-10.932-5.633l11.874-12.29V51.75H63.698v12.054h22.601L76.063 74.439v9.848h6.797c5.841 0 8.762 1.785 8.762 5.357 0 1.838-.819 3.256-2.456 4.254-1.638.998-3.85 1.497-6.634 1.497-2.73 0-5.5-.394-8.311-1.182-2.812-.788-5.337-1.917-7.575-3.387l-5.896 11.738c2.893 1.733 6.32 3.073 10.277 4.018 3.958.945 7.957 1.418 11.997 1.418z" opacity=".15" transform="translate(-410 -1195) translate(410 1195)"/>
                <path fill="#FFF" d="M80.774 105.75c5.514 0 10.14-.853 13.88-2.56s6.524-3.953 8.353-6.736c1.829-2.784 2.743-5.804 2.743-9.06 0-3.992-1.27-7.392-3.808-10.202-2.538-2.81-6.182-4.688-10.932-5.633l11.874-12.29V49.5H61.448v12.054h22.601L73.813 72.189v9.848h6.797c5.841 0 8.762 1.785 8.762 5.357 0 1.838-.819 3.256-2.456 4.254-1.638.998-3.85 1.497-6.634 1.497-2.73 0-5.5-.394-8.311-1.182-2.812-.788-5.337-1.917-7.575-3.387L58.5 100.314c2.893 1.733 6.32 3.073 10.277 4.018 3.958.945 7.957 1.418 11.997 1.418z" transform="translate(-410 -1195) translate(410 1195)"/>
            </g>
        </g>
    </g>
</svg>
