<svg xmlns="http://www.w3.org/2000/svg" width="162" height="162" viewBox="0 0 162 162">
    <defs>
        <filter id="0uhj1jao9a" width="117.6%" height="119.3%" x="-8.8%" y="-9.6%" filterUnits="objectBoundingBox">
            <feOffset dy="2" in="SourceAlpha" result="shadowOffsetOuter1"/>
            <feGaussianBlur in="shadowOffsetOuter1" result="shadowBlurOuter1" stdDeviation="2.5"/>
            <feColorMatrix in="shadowBlurOuter1" result="shadowMatrixOuter1" values="0 0 0 0 0 0 0 0 0 0 0 0 0 0 0 0 0 0 0.3 0"/>
            <feMerge>
                <feMergeNode in="shadowMatrixOuter1"/>
                <feMergeNode in="SourceGraphic"/>
            </feMerge>
        </filter>
    </defs>
    <g fill="none" fill-rule="evenodd">
        <g fill-rule="nonzero">
            <g>
                <g filter="url(#0uhj1jao9a)" transform="translate(-248 -1195) translate(248 1195) translate(4.5 11.25)">
                    <path fill="#CCC" d="M35.977 0L0 85.885 76.669 139.743 152.756 94.244 120.698 0z"/>
                    <path fill="#D3D3D3" d="M5.573 89.804L37.63 112.309 136.926 47.306 124.618 12.002zM41.702 115.187L57.838 126.516 145.316 72.168 138.549 52.511z"/>
                    <path fill="#737373" d="M41.396 9.186L9.767 83.65 76.699 130.343 142.652 90.876 114.85 9.186z"/>
                    <path fill="gray" d="M131.21 57.26l6.65 19.538-72.947 45.322-16.325-11.389 82.623-53.47zm-13.799-40.547l12.07 35.465-85.032 55.667-32.156-22.433 105.118-68.7z"/>
                </g>
                <path fill="#000" d="M108 103.5V91.131H86.042l10.735-9.611c3.795-3.361 6.357-6.368 7.685-9.02 1.329-2.653 1.993-5.476 1.993-8.47 0-3.36-.935-6.315-2.806-8.862-1.87-2.548-4.473-4.504-7.807-5.87-3.334-1.365-7.17-2.048-11.508-2.048-5.476 0-10.22 1.024-14.232 3.072-4.012 2.049-7.13 4.859-9.352 8.43l11.955 6.46c1.138-1.733 2.589-3.06 4.35-3.978 1.763-.92 3.701-1.379 5.815-1.379 2.386 0 4.202.499 5.45 1.497 1.246.998 1.87 2.39 1.87 4.175 0 1.366-.353 2.718-1.057 4.058-.705 1.339-2.088 2.954-4.148 4.845L63.678 93.73v9.769H108z" opacity=".15" transform="translate(-248 -1195) translate(248 1195)"/>
                <path fill="#FFF" d="M105.75 101.25V88.881H83.792l10.735-9.611c3.795-3.361 6.357-6.368 7.685-9.02 1.329-2.653 1.993-5.476 1.993-8.47 0-3.36-.935-6.315-2.806-8.862-1.87-2.548-4.473-4.504-7.807-5.87C90.258 45.683 86.422 45 82.084 45c-5.476 0-10.22 1.024-14.232 3.072-4.012 2.049-7.13 4.859-9.352 8.43l11.955 6.46c1.138-1.733 2.589-3.06 4.35-3.978 1.763-.92 3.701-1.379 5.815-1.379 2.386 0 4.202.499 5.45 1.497 1.246.998 1.87 2.39 1.87 4.175 0 1.366-.353 2.718-1.057 4.058-.705 1.339-2.088 2.954-4.148 4.845L61.428 91.48v9.769h44.322z" transform="translate(-248 -1195) translate(248 1195)"/>
            </g>
        </g>
    </g>
</svg>
